<?xml version="1.0" standalone="no"?>
<!DOCTYPE svg PUBLIC "-//W3C//DTD SVG 20010904//EN"
 "http://www.w3.org/TR/2001/REC-SVG-20010904/DTD/svg10.dtd">
<svg version="1.0" xmlns="http://www.w3.org/2000/svg"
 width="400.000000pt" height="400.000000pt" viewBox="0 0 400.000000 400.000000"
 preserveAspectRatio="xMidYMid meet">
<metadata>
Created by potrace 1.13, written by Peter Selinger 2001-2015
</metadata>
<g transform="translate(0.000000,400.000000) scale(0.100000,-0.100000)"
fill="#000000" stroke="none">
<path d="M0 2000 l0 -2000 2000 0 2000 0 0 2000 0 2000 -2000 0 -2000 0 0
-2000z m654 424 c3 -9 6 -77 6 -152 l0 -136 33 31 c41 40 111 72 158 73 94 0
191 -64 229 -152 79 -179 -41 -381 -225 -381 -67 0 -111 18 -162 66 l-33 31 0
-36 c0 -39 -19 -62 -44 -52 -14 6 -16 43 -16 365 l0 359 24 0 c13 0 27 -7 30
-16z m1096 -205 c25 -11 56 -30 68 -42 35 -32 70 -107 78 -165 9 -72 4 -73
-226 -70 l-189 3 6 -25 c19 -81 67 -130 145 -151 57 -15 122 1 175 42 40 33
44 34 61 17 17 -17 15 -24 -15 -54 -45 -43 -111 -67 -178 -67 -147 0 -255 112
-255 264 0 188 174 319 330 248z m530 0 c25 -11 56 -30 68 -42 35 -32 69 -105
77 -164 10 -73 5 -74 -225 -71 l-189 3 6 -25 c19 -81 67 -130 146 -151 56 -16
112 -2 175 43 38 27 46 29 58 16 21 -21 9 -43 -43 -77 -230 -153 -497 97 -372
348 60 121 186 171 299 120z m-1072 -1 c7 -7 12 -31 12 -55 l0 -42 44 44 c67
66 167 88 174 37 4 -23 2 -25 -68 -43 -57 -14 -123 -79 -139 -134 -6 -22 -11
-97 -11 -166 0 -132 -8 -157 -44 -143 -14 5 -16 34 -16 253 0 136 3 251 7 254
10 11 28 8 41 -5z m1673 2 c10 -6 19 -15 19 -19 0 -5 -79 -103 -176 -217
l-177 -209 174 -5 c166 -5 174 -6 174 -25 0 -19 -7 -20 -215 -20 -190 0 -215
2 -218 16 -2 9 70 103 169 220 l172 204 -162 3 c-168 3 -183 7 -167 47 4 13
36 15 196 15 113 0 199 -4 211 -10z m210 -185 c49 -104 94 -202 101 -217 12
-26 17 -19 98 183 46 116 90 215 97 221 17 14 43 3 43 -19 0 -10 -41 -115 -91
-233 -49 -118 -97 -233 -106 -255 -26 -62 -63 -113 -98 -135 -58 -36 -185 -21
-185 21 0 23 26 30 70 20 53 -12 96 4 125 47 14 20 25 44 25 53 0 9 -49 118
-110 242 -60 124 -110 232 -110 240 0 20 11 28 33 25 15 -2 42 -52 108 -193z"/>
<path d="M774 2161 c-107 -48 -149 -180 -94 -291 40 -79 136 -123 221 -100
139 38 186 236 84 349 -54 60 -136 76 -211 42z"/>
<path d="M1594 2166 c-52 -23 -85 -66 -108 -143 l-7 -23 177 0 177 0 -7 32
c-23 117 -130 178 -232 134z"/>
<path d="M2125 2166 c-45 -20 -84 -67 -100 -120 l-14 -46 174 0 c175 0 175 0
175 23 0 12 -11 42 -24 67 -39 77 -132 111 -211 76z"/>
</g>
</svg>
